<?xml version="1.0" standalone="no"?>
<!DOCTYPE svg PUBLIC "-//W3C//DTD SVG 20010904//EN"
 "http://www.w3.org/TR/2001/REC-SVG-20010904/DTD/svg10.dtd">
<svg version="1.0" xmlns="http://www.w3.org/2000/svg"
 width="30px" height="30px" viewBox="0 0 200.000000 200.000000"
 preserveAspectRatio="xMidYMid meet">
<metadata>
Created by potrace 1.16, written by Peter Selinger 2001-2019
</metadata>
<g transform="translate(0.000000,200.000000) scale(0.100000,-0.100000)"
fill="#000000" stroke="none">
<path d="M873 1986 c-144 -47 -260 -182 -293 -341 -30 -144 29 -407 119 -533
l20 -29 -34 -16 c-44 -21 -117 -119 -145 -195 -12 -31 -24 -89 -27 -128 l-6
-71 29 -6 c16 -3 43 -18 59 -32 l30 -27 -33 22 c-36 24 -97 36 -136 26 -14 -3
-43 -21 -63 -38 l-38 -32 29 31 c15 17 41 37 57 43 22 10 30 21 34 49 22 142
43 201 99 274 21 27 36 51 33 53 -6 6 -111 -60 -163 -103 -117 -95 -225 -273
-264 -433 -34 -145 -34 -148 68 -249 75 -75 102 -94 192 -139 171 -84 311
-112 560 -112 249 0 389 28 560 112 90 45 117 64 194 141 l89 88 -6 63 c-17
182 -135 393 -295 527 -52 43 -161 113 -168 107 -2 -2 13 -24 33 -48 39 -50
103 -174 103 -202 0 -10 13 -23 33 -32 107 -45 113 -179 9 -223 -50 -21 -107
-2 -140 47 -36 53 -26 104 29 153 l42 38 -16 53 c-22 69 -82 160 -140 213
l-46 42 35 58 c72 120 107 252 107 408 1 92 -3 120 -23 170 -44 115 -127 206
-228 253 -47 22 -74 27 -157 29 -65 2 -115 -2 -142 -11z m-96 -281 c149 -58
339 -58 429 2 22 14 23 13 60 -63 21 -43 39 -99 42 -126 2 -26 6 -48 9 -48 2
0 14 12 27 27 l23 27 -9 -70 c-24 -190 -117 -351 -239 -415 -62 -33 -176 -33
-238 0 -112 59 -209 216 -236 380 -8 46 -10 45 38 26 9 -4 12 21 12 108 0 91
3 118 18 140 21 32 17 31 64 12z m77 -735 c91 -46 200 -46 290 -1 20 11 36 18
36 16 0 -6 -182 -240 -188 -242 -4 -1 -28 28 -54 65 -25 37 -65 93 -88 125
-22 31 -40 57 -38 57 2 0 21 -9 42 -20z m396 -520 l0 -40 45 0 c43 0 45 -1 45
-30 0 -29 -2 -30 -45 -30 l-45 0 0 -45 c0 -43 -1 -45 -30 -45 -29 0 -30 2 -30
45 l0 45 -40 0 c-38 0 -40 2 -40 30 0 28 2 30 40 30 l40 0 0 40 c0 38 2 40 30
40 28 0 30 -2 30 -40z"/>
<path d="M1457 710 c-79 -63 -7 -182 88 -145 84 32 56 165 -35 165 -15 0 -39
-9 -53 -20z"/>
</g>
</svg>
